<svg aria-hidden="true" style="position:absolute;width:0;height:0" xmlns="http://www.w3.org/2000/svg" overflow="hidden"><defs><symbol id="icon-heart" viewBox="0 0 28 28"><path d="M14 26c-.25 0-.5-.094-.688-.281l-9.75-9.406c-.125-.109-3.563-3.25-3.563-7C-.001 4.735 2.796 2 7.468 2c2.734 0 5.297 2.156 6.531 3.375C15.233 4.156 17.796 2 20.53 2c4.672 0 7.469 2.734 7.469 7.313 0 3.75-3.437 6.891-3.578 7.031l-9.734 9.375a.972.972 0 0 1-.688.281z"/></symbol><symbol id="icon-map-pin" viewBox="0 0 24 24"><path d="M12 0C6.5 0 2 4.5 2 10c0 7.4 9.1 13.6 9.4 13.8.2.1.4.2.6.2s.4-.1.6-.2c.3-.2 9.4-6.4 9.4-13.8 0-5.5-4.5-10-10-10zm0 21.8c-1.9-1.4-8-6.4-8-11.8 0-4.4 3.6-8 8-8s8 3.6 8 8c0 5.4-6.1 10.4-8 11.8z"/><path d="M12 6c-2.2 0-4 1.8-4 4s1.8 4 4 4 4-1.8 4-4-1.8-4-4-4zm0 6c-1.1 0-2-.9-2-2s.9-2 2-2 2 .9 2 2-.9 2-2 2z"/></symbol><symbol id="icon-expand" viewBox="0 0 32 32"><path d="M32 30.5v-29c0-.827-.673-1.5-1.5-1.5h-29C.673 0 0 .673 0 1.5v9a.5.5 0 0 0 1 0v-9a.5.5 0 0 1 .5-.5h29a.5.5 0 0 1 .5.5v29a.5.5 0 0 1-.5.5h-9a.5.5 0 0 0 0 1h9c.827 0 1.5-.673 1.5-1.5zM1.5 13c-.827 0-1.5.673-1.5 1.5v16c0 .827.673 1.5 1.5 1.5h16c.827 0 1.5-.673 1.5-1.5V13.707l7-7V13.5a.5.5 0 0 0 1 0v-8a.5.5 0 0 0-.5-.5h-8a.5.5 0 0 0 0 1h6.792l-7 7H1.5zM18 30.5a.5.5 0 0 1-.5.5h-16a.5.5 0 0 1-.5-.5v-16a.5.5 0 0 1 .5-.5H18v16.5z"/></symbol><symbol id="icon-profile-male" viewBox="0 0 36 32"><path d="M.5 31.983a.503.503 0 0 0 .612-.354c1.03-3.843 5.216-4.839 7.718-5.435.627-.149 1.122-.267 1.444-.406 2.85-1.237 3.779-3.227 4.057-4.679a.5.5 0 0 0-.165-.473c-1.484-1.281-2.736-3.204-3.526-5.416a.492.492 0 0 0-.103-.171c-1.045-1.136-1.645-2.337-1.645-3.294 0-.559.211-.934.686-1.217a.5.5 0 0 0 .243-.408C10.042 5.036 13.67 1.026 18.12 1l.107.007c4.472.062 8.077 4.158 8.206 9.324a.498.498 0 0 0 .178.369c.313.265.459.601.459 1.057 0 .801-.427 1.786-1.201 2.772a.522.522 0 0 0-.084.158c-.8 2.536-2.236 4.775-3.938 6.145a.502.502 0 0 0-.178.483c.278 1.451 1.207 3.44 4.057 4.679.337.146.86.26 1.523.403 2.477.536 6.622 1.435 7.639 5.232a.5.5 0 0 0 .966-.26c-1.175-4.387-5.871-5.404-8.393-5.95-.585-.127-1.09-.236-1.336-.344-1.86-.808-3.006-2.039-3.411-3.665 1.727-1.483 3.172-3.771 3.998-6.337.877-1.14 1.359-2.314 1.359-3.317 0-.669-.216-1.227-.644-1.663C27.189 4.489 23.19.076 18.227.005l-.149-.002c-4.873.026-8.889 4.323-9.24 9.83-.626.46-.944 1.105-.944 1.924 0 1.183.669 2.598 1.84 3.896.809 2.223 2.063 4.176 3.556 5.543-.403 1.632-1.55 2.867-3.414 3.676-.241.105-.721.22-1.277.352-2.541.604-7.269 1.729-8.453 6.147a.5.5 0 0 0 .354.612z"/></symbol><symbol id="icon-streetsign" viewBox="0 0 29 32"><path d="M15 31.5V22c0-.276-.133-1-.409-1s-.591.224-.591.5v10c0 .276.314.5.591.5s.409-.224.409-.5zm.091-29.938V.5a.5.5 0 0 0-1 0v1.062a.5.5 0 0 0 1 0zM3.89 3.471L.323 6.269A1 1 0 0 0 0 7c0 .275.118.542.354.758l3.505 2.745c.307.283.854.497 1.273.497H18.96c.573 0 1.04-.463 1.04-1.033V4.033C20 3.463 19.533 3 18.96 3H5.132c-.419 0-.966.214-1.242.471zM19 9.967c0 .015-.018.033-.04.033H5.132c-.17 0-.471-.117-.625-.258L.971 7.029l3.566-2.798c.125-.114.425-.231.595-.231L19 4.033v5.934zm6.141 2.53c-.307-.283-.854-.497-1.273-.497H10.04C9.467 12 9 12.463 9 13.033v5.935C9 19.537 9.467 20 10.04 20h13.828c.419 0 .966-.214 1.243-.471l3.566-2.798A1 1 0 0 0 29 16a1.02 1.02 0 0 0-.354-.758l-3.505-2.745zM10 13h13.868c.17 0 .471.117.625.258l3.536 2.713-3.566 2.798a1.131 1.131 0 0 1-.595.231H10v-6z"/></symbol><symbol id="icon-lock" viewBox="0 0 32 32"><path d="M15 21.915a1.5 1.5 0 1 1 1 0v2.594a.501.501 0 0 1-1 0v-2.594zm-1 .585v1.998a1.5 1.5 0 0 0 3 0V22.5a2.5 2.5 0 1 0-3 0zM8 14v-3.501A7.499 7.499 0 0 1 15.5 3c4.134 0 7.5 3.358 7.5 7.499V14c1.659.005 3 1.35 3 3.009v9.981a3.002 3.002 0 0 1-3.009 3.009H8.009A3.008 3.008 0 0 1 5 26.99v-9.981A3.001 3.001 0 0 1 8 14zm1 0h1v-3.491A5.5 5.5 0 0 1 15.5 5c3.031 0 5.5 2.466 5.5 5.509V14h1v-3.507C22 6.907 19.083 4 15.5 4 11.91 4 9 6.908 9 10.493V14zm2 0h9v-3.499A4.504 4.504 0 0 0 15.5 6a4.497 4.497 0 0 0-4.5 4.501V14zm-3.003 1A2 2 0 0 0 6 17.006v9.988A2 2 0 0 0 7.997 29h15.005a2 2 0 0 0 1.997-2.006v-9.988A2 2 0 0 0 23.002 15H7.997z"/></symbol><symbol id="icon-key" viewBox="0 0 32 32"><path d="M18.532 19.468L14 24h-3v3H8v3H3v-5l10.532-10.532A8.49 8.49 0 0 1 13 11.5a8.5 8.5 0 1 1 5.532 7.968zm-4.533-3.967L4 25.5V29h3v-3h3v-3h3.5l3.999-3.999a8.54 8.54 0 0 1-3.5-3.5zM29 11.5a7.5 7.5 0 1 0-15 0 7.5 7.5 0 0 0 15 0zM27 9a3 3 0 1 1-6 0 3 3 0 0 1 6 0zm-1 0a2 2 0 1 0-3.999-.001A2 2 0 0 0 26 9z"/></symbol><symbol id="icon-trophy" viewBox="0 0 32 32"><path d="M21 25h3v4H9v-4h3v-3h4v-4c-3.309-.003-6-2.685-6-5.993V12c-3.5-1.5-4-9-4-9h21s-.5 7.5-4 9v.007c0 3.31-2.686 5.99-6 5.993v4h4v3zM11 4v7.992A5.004 5.004 0 0 0 16.001 17h.998A5 5 0 0 0 22 11.992V4H11zm-1 0H7.1s.554 5.221 2.9 6.9V4zm12.982 0v6.88c2.346-1.679 2.9-6.88 2.9-6.88h-2.9zM13 23v2h7v-2h-7zm-3 3v2h13v-2H10z"/></symbol><symbol id="icon-world" viewBox="0 0 32 32"><path d="M15.5 0C6.939 0 0 6.939 0 15.5S6.939 31 15.5 31 31 24.061 31 15.5 24.061 0 15.5 0zm13.475 15h-5.996c-.055-2.215-.449-4.331-1.148-6.268a16.334 16.334 0 0 0 3.736-2.197A13.433 13.433 0 0 1 28.975 15zM14.947 28.972c-1.662-1.384-3.056-3.181-4.076-5.268A15.497 15.497 0 0 1 15 23.025v5.949l-.053-.002zm1.104-26.944c1.886 1.57 3.425 3.673 4.466 6.126-1.426.487-2.941.77-4.518.82V2.025l.052.003zm1.666.17a13.463 13.463 0 0 1 7.164 3.614 15.297 15.297 0 0 1-3.428 1.998c-.91-2.157-2.187-4.064-3.736-5.612zM15 2.025v6.949a15.492 15.492 0 0 1-4.518-.82c1.041-2.453 2.58-4.556 4.466-6.126L15 2.025zM9.546 7.811a15.335 15.335 0 0 1-3.427-1.998 13.46 13.46 0 0 1 7.164-3.614c-1.55 1.547-2.826 3.454-3.737 5.612zm.559 1.265c1.542.535 3.185.847 4.895.899V15H9.021c.054-2.094.425-4.095 1.084-5.924zM15 16v6.025a16.411 16.411 0 0 0-4.539.769A18.785 18.785 0 0 1 9.021 16H15zm-1.717 12.802a13.431 13.431 0 0 1-6.545-3.052 15.199 15.199 0 0 1 3.188-1.7 17.317 17.317 0 0 0 3.357 4.752zm2.717.173v-5.949c1.432.046 2.82.27 4.129.679-1.021 2.087-2.414 3.884-4.076 5.268l-.053.002zm5.074-4.925a15.32 15.32 0 0 1 3.188 1.7 13.44 13.44 0 0 1-6.545 3.052 17.338 17.338 0 0 0 3.357-4.752zm-.535-1.256A16.424 16.424 0 0 0 16 22.025V16h5.979a18.806 18.806 0 0 1-1.44 6.794zM16 15V9.975a16.44 16.44 0 0 0 4.895-.898c.658 1.829 1.029 3.83 1.084 5.924H16zM5.434 6.535a16.35 16.35 0 0 0 3.735 2.197C8.47 10.669 8.076 12.785 8.021 15H2.025a13.429 13.429 0 0 1 3.409-8.465zM2.025 16h5.996a19.724 19.724 0 0 0 1.503 7.137 16.23 16.23 0 0 0-3.538 1.931A13.463 13.463 0 0 1 2.025 16zm22.989 9.067a16.256 16.256 0 0 0-3.539-1.931 19.725 19.725 0 0 0 1.504-7.137h5.996a13.464 13.464 0 0 1-3.961 9.068z"/></symbol><symbol id="icon-chevron-small-right" viewBox="0 0 20 20"><path d="M11 10L7.859 6.58a.695.695 0 0 1 0-.978.68.68 0 0 1 .969 0l3.83 3.908a.697.697 0 0 1 0 .979l-3.83 3.908c-.267.272-.701.27-.969 0s-.268-.707 0-.978L11 10z"/></symbol><symbol id="icon-stats-dots" viewBox="0 0 32 32"><path d="M4 28h28v4H0V0h4zm5-2a3 3 0 1 1 .262-5.988l3.225-5.375a3 3 0 1 1 5.026 0l3.225 5.375a3.238 3.238 0 0 1 .46-.005l5.324-9.316a3 3 0 1 1 2.28 1.302l-5.324 9.316a3 3 0 1 1-4.991.053l-3.225-5.375c-.086.007-.174.012-.262.012s-.176-.005-.262-.012l-3.225 5.375A3 3 0 0 1 9 25.999z"/></symbol><symbol id="icon-sphere" viewBox="0 0 32 32"><path d="M15 2C6.716 2 0 8.716 0 17s6.716 15 15 15c8.284 0 15-6.716 15-15S23.284 2 15 2zm8.487 20c.268-1.264.437-2.606.492-4h3.983a12.866 12.866 0 0 1-.959 4h-3.516zM6.513 12a23.855 23.855 0 0 0-.492 4H2.038c.104-1.381.426-2.722.959-4h3.516zm14.926 0c.3 1.28.481 2.62.54 4H16v-4h5.439zM16 10V4.146c.456.133.908.355 1.351.668.831.586 1.625 1.488 2.298 2.609.465.775.867 1.638 1.203 2.578H16zm-5.649-2.578c.673-1.121 1.467-2.023 2.298-2.609A4.557 4.557 0 0 1 14 4.145v5.854H9.148c.336-.94.738-1.803 1.203-2.578zM14 12v4H8.021c.059-1.38.24-2.72.54-4H14zM2.997 22a12.894 12.894 0 0 1-.959-4h3.983c.055 1.394.224 2.736.492 4H2.997zm5.024-4H14v4H8.561c-.3-1.28-.481-2.62-.54-4zM14 24v5.854a4.557 4.557 0 0 1-1.351-.668c-.831-.586-1.625-1.488-2.298-2.609a14.478 14.478 0 0 1-1.203-2.578H14zm5.649 2.578c-.673 1.121-1.467 2.023-2.298 2.609a4.581 4.581 0 0 1-1.351.668v-5.854h4.852a14.51 14.51 0 0 1-1.203 2.578zM16 22v-4h5.979c-.059 1.38-.24 2.72-.54 4H16zm7.98-6a23.855 23.855 0 0 0-.492-4h3.516c.533 1.278.855 2.619.959 4H23.98zm1.978-6h-2.997c-.582-1.836-1.387-3.447-2.354-4.732a12.974 12.974 0 0 1 3.585 2.54A13.07 13.07 0 0 1 25.958 10zM5.808 7.808a12.974 12.974 0 0 1 3.585-2.54C8.426 6.553 7.622 8.164 7.039 10H4.042a12.97 12.97 0 0 1 1.766-2.192zM4.042 24h2.997c.583 1.836 1.387 3.447 2.354 4.732a12.974 12.974 0 0 1-3.585-2.54A13.07 13.07 0 0 1 4.042 24zm20.15 2.192a12.974 12.974 0 0 1-3.585 2.54c.967-1.285 1.771-2.896 2.354-4.732h2.997a12.97 12.97 0 0 1-1.766 2.192z"/></symbol></defs></svg>